# File created by Blade
# Date/Time:  Fri Jan 16 17:52:57 2015
#---------------------------------------------------------
:version 1.10
:name HOM
:units
  mass 1.0
  length 1.000000
  angle deg
:documentation
     Acclaim Skeleton File
:root
   axis xyz
   order TX TY TZ RX RY RZ
   position 0.000000 0.000000 0.000000
   orientation 0 0 0
:bonedata
   begin
      id 1
      name Spine_dum
      direction 0.000000 1.000000 0.000000
      length 7.170412
      axis 0.0 0.0 0.0 xyz
   end
   begin
      id 2
      name LeftUpLeg_dum
      direction 1.000000 0.000000 0.000000
      length 4.318350
      axis 0.0 0.0 0.0 xyz
   end
   begin
      id 3
      name RightUpLeg_dum
      direction -1.000000 0.000000 0.000000
      length 4.318350
      axis 0.0 0.0 0.0 xyz
   end
   begin
      id 4
      name Spine
      direction 0.000000 1.000000 0.000000
      length 0.000000
      axis 0.0 0.0 0.0 xyz
      dof rx ry rz
   end
   begin
      id 5
      name Spine_dum1
      direction 0.000000 1.000000 0.000000
      length 14.276153
      axis 0.0 0.0 0.0 xyz
   end
   begin
      id 6
      name Spine_dum2
      direction 0.000000 1.000000 0.000000
      length 10.718243
      axis 0.0 0.0 0.0 xyz
   end
   begin
      id 7
      name Spine_dum3
      direction 0.000000 1.000000 0.000000
      length 10.718243
      axis 0.0 0.0 0.0 xyz
   end
   begin
      id 8
      name Head
      direction 0.000000 1.000000 0.000000
      length 4.527550
      axis 0.0 0.0 0.0 xyz
      dof rx ry rz
   end
   begin
      id 9
      name LeftShoulder
      direction 1.000000 0.000000 0.000000
      length 7.058872
      axis 0.0 0.0 -90.0 xyz
      dof rx ry rz
   end
   begin
      id 10
      name LeftArm
      direction 1.000000 0.000000 0.000000
      length 10.955525
      axis 0.0 0.0 -90.0 xyz
      dof rx ry rz
   end
   begin
      id 11
      name LeftForeArm
      direction 1.000000 0.000000 0.000000
      length 8.193716
      axis 0.0 0.0 -90.0 xyz
      dof ry rz rx
   end
   begin
      id 12
      name LeftHand
      direction 0.000000 0.000000 0.000000
      length 0.000000
      axis 0.0 0.0 -90.0 xyz
      dof rx ry rz
   end
   begin
      id 13
      name LeftHand_dum1
      direction 0.000000 0.000000 0.000000
      length 0.000000
      axis 0.0 0.0 -90.0 xyz
   end
   begin
      id 14
      name LeftHand_dum2
      direction 1.000000 0.000000 0.000000
      length 3.937000
      axis 0.0 0.0 -90.0 xyz
   end
   begin
      id 15
      name LeftHandThumb1
      direction 0.000000 0.000000 1.000000
      length 3.937000
      axis 0.0 0.0 -90.0 xyz
      dof rx rz ry
   end
   begin
      id 16
      name RightShoulder
      direction -1.000000 0.000000 0.000000
      length 7.058872
      axis 0.0 0.0 90.0 xyz
      dof rx ry rz
   end
   begin
      id 17
      name RightArm
      direction -1.000000 0.000000 0.000000
      length 10.955525
      axis 0.0 0.0 90.0 xyz
      dof rx ry rz
   end
   begin
      id 18
      name RightForeArm
      direction -1.000000 0.000000 0.000000
      length 8.193716
      axis 0.0 0.0 90.0 xyz
      dof ry rz rx
   end
   begin
      id 19
      name RightHand
      direction 0.000000 0.000000 0.000000
      length 0.000000
      axis 0.0 0.0 90.0 xyz
      dof rx ry rz
   end
   begin
      id 20
      name RightHand_dum1
      direction 0.000000 0.000000 0.000000
      length 0.000000
      axis 0.0 0.0 90.0 xyz
   end
   begin
      id 21
      name RightHand_dum2
      direction -1.000000 0.000000 0.000000
      length 3.937000
      axis 0.0 0.0 90.0 xyz
   end
   begin
      id 22
      name RightHandThumb1
      direction 0.000000 0.000000 1.000000
      length 3.937000
      axis 0.0 0.0 90.0 xyz
      dof rx rz ry
   end
   begin
      id 23
      name LeftUpLeg
      direction 0.000000 -1.000000 0.000000
      length 17.323638
      axis 0.0 0.0 0.0 xyz
      dof rx ry rz
   end
   begin
      id 24
      name LeftLeg
      direction 0.000000 -1.000000 0.000000
      length 16.270368
      axis 0.0 0.0 0.0 xyz
      dof rx ry rz
   end
   begin
      id 25
      name LeftFoot
      direction 0.000000 -0.258819 0.965926
      length 4.922846
      axis 15.0 0.0 0.0 xyz
      dof rx ry rz
   end
   begin
      id 26
      name LeftToeBase
      direction 0.000000 0.000000 1.000000
      length 2.952750
      axis 0.0 0.0 0.0 xyz
      dof rx ry rz
   end
   begin
      id 27
      name RightUpLeg
      direction 0.000000 -1.000000 0.000000
      length 17.323638
      axis 0.0 0.0 0.0 xyz
      dof rx ry rz
   end
   begin
      id 28
      name RightLeg
      direction 0.000000 -1.000000 0.000000
      length 16.270368
      axis 0.0 0.0 0.0 xyz
      dof rx ry rz
   end
   begin
      id 29
      name RightFoot
      direction 0.000000 -0.258819 0.965926
      length 4.922846
      axis 15.0 0.0 0.0 xyz
      dof rx ry rz
   end
   begin
      id 30
      name RightToeBase
      direction 0.000000 0.000000 1.000000
      length 2.952750
      axis 0.0 0.0 0.0 xyz
      dof rx ry rz
   end
:hierarchy
   begin
      root Spine_dum LeftUpLeg_dum RightUpLeg_dum
      Spine_dum Spine
      LeftUpLeg_dum LeftUpLeg
      RightUpLeg_dum RightUpLeg
      Spine Spine_dum1 Spine_dum2 Spine_dum3
      Spine_dum1 Head
      Spine_dum2 LeftShoulder
      Spine_dum3 RightShoulder
      LeftShoulder LeftArm
      LeftArm LeftForeArm
      LeftForeArm LeftHand
      LeftHand LeftHand_dum1 LeftHand_dum2
      LeftHand_dum1 LeftHandThumb1
      RightShoulder RightArm
      RightArm RightForeArm
      RightForeArm RightHand
      RightHand RightHand_dum1 RightHand_dum2
      RightHand_dum1 RightHandThumb1
      LeftUpLeg LeftLeg
      LeftLeg LeftFoot
      LeftFoot LeftToeBase
      RightUpLeg RightLeg
      RightLeg RightFoot
      RightFoot RightToeBase
   end

# File created by Blade
# Date/Time:  Fri Jan 16 17:53:05 2015
# Frame Rate: 120.000 fps
#------------------------------------------------------
:FULLY-SPECIFIED
:DEGREES
362
root -4.208773 35.374616 -11.861227 -4.488323 -6.928134 -6.214116
Spine 9.513526 -2.130888 6.317186
Head 10.320246 7.499663 -5.212533
LeftShoulder -24.120766 15.911912 -7.081047
LeftArm 27.053963 -40.625424 -80.077860
LeftForeArm -5.471936 -0.000000 121.636883
LeftHand 1.781176 0.000000 6.692318
LeftHandThumb1 -26.253704 0.000000 33.147579
RightShoulder -6.817979 -7.643538 0.358770
RightArm 5.498166 -22.394499 72.767742
RightForeArm -21.872578 -0.000000 27.098375
RightHand -0.411293 -0.000000 -1.372428
RightHandThumb1 -24.326973 -0.000000 -32.862282
LeftUpLeg 12.594031 10.007923 0.114305
LeftLeg -8.716821 -0.000000 0.000000
LeftFoot -14.886462 30.128199 -7.654876
LeftToeBase 20.195770 -0.000000 -0.000000
RightUpLeg 2.384469 4.957683 10.276814
RightLeg 12.483369 -0.000000 -0.000000
RightFoot -12.095366 -24.534504 5.122057
RightToeBase 0.694422 -0.000000 -0.000000
363
root -4.214011 35.383071 -11.854234 -4.483697 -6.928781 -6.283533
Spine 9.548477 -2.028330 6.394444
Head 10.172636 7.412718 -5.219079
LeftShoulder -24.053635 15.812364 -6.917303
LeftArm 27.233024 -40.633506 -80.620902
LeftForeArm -5.130909 -0.000000 121.448032
LeftHand 1.920400 -0.000000 6.626875
LeftHandThumb1 -26.253704 0.000000 33.147579
RightShoulder -6.756716 -7.624569 0.337159
RightArm 5.482201 -22.340443 72.806053
RightForeArm -21.880711 -0.000000 27.034720
RightHand -0.445876 -0.000000 -1.182566
RightHandThumb1 -24.326973 -0.000000 -32.862282
LeftUpLeg 12.563327 10.018916 0.193806
LeftLeg -8.619307 -0.000000 0.000000
LeftFoot -14.911696 30.103876 -7.652632
LeftToeBase 20.153335 -0.000000 -0.000000
RightUpLeg 2.362425 5.154132 10.320762
RightLeg 12.564366 -0.000000 -0.000000
RightFoot -11.976857 -24.342862 5.172390
RightToeBase -0.406180 -0.000000 0.000000
364
root -4.222032 35.391930 -11.849060 -4.480494 -6.908880 -6.354275
Spine 9.596773 -1.941302 6.453016
Head 9.997622 7.318151 -5.192312
LeftShoulder -23.953796 15.718637 -6.760636
LeftArm 27.304934 -40.647786 -80.980248
LeftForeArm -4.807929 -0.000000 121.302880
LeftHand 2.056794 0.000000 6.768958
LeftHandThumb1 -26.253704 0.000000 33.147579
RightShoulder -6.713027 -7.693508 0.336117
RightArm 5.594541 -22.239639 72.822197
RightForeArm -21.834706 0.000000 26.952884
RightHand -0.419342 -0.000000 -1.107969
RightHandThumb1 -24.326973 -0.000000 -32.862282
LeftUpLeg 12.510607 10.039333 0.281008
LeftLeg -8.488561 -0.000000 0.000000
LeftFoot -14.987497 30.069209 -7.691839
LeftToeBase 20.125552 -0.000000 -0.000000
RightUpLeg 2.342411 5.424727 10.375743
RightLeg 12.645694 -0.000000 -0.000000
RightFoot -11.895600 -24.246495 5.288903
RightToeBase -1.465081 -0.000000 0.000000
365
root -4.226455 35.400793 -11.845936 -4.462156 -6.921081 -6.418086
Spine 9.641611 -1.834470 6.531643
Head 9.790681 7.240442 -5.206289
LeftShoulder -23.847868 15.620095 -6.619386
LeftArm 27.349919 -40.688062 -81.330050
LeftForeArm -4.424577 -0.000000 121.165427
LeftHand 2.076847 -0.000000 6.966357
LeftHandThumb1 -26.253704 0.000000 33.147579
RightShoulder -6.676550 -7.639087 0.308706
RightArm 5.602149 -22.202808 72.850313
RightForeArm -21.993166 -0.000000 26.923481
RightHand -0.365793 -0.000000 -1.276826
RightHandThumb1 -24.326973 -0.000000 -32.862282
LeftUpLeg 12.426608 10.156177 0.364617
LeftLeg -8.326707 -0.000000 0.000000
LeftFoot -15.064959 29.971428 -7.731018
LeftToeBase 20.138911 -0.000000 -0.000000
RightUpLeg 2.276776 5.695303 10.398679
RightLeg 12.780176 -0.000000 -0.000000
RightFoot -11.782568 -24.074636 5.314627
RightToeBase -2.532737 -0.000000 0.000000
366
root -4.235403 35.410203 -11.842552 -4.450874 -6.921682 -6.496955
Spine 9.705003 -1.762549 6.616783
Head 9.547780 7.186514 -5.226391
LeftShoulder -23.713930 15.520653 -6.454946
LeftArm 27.304895 -40.747467 -81.594637
LeftForeArm -3.998238 -0.000000 121.062083
LeftHand 2.093725 -0.000000 7.323517
LeftHandThumb1 -26.253704 0.000000 33.147579
RightShoulder -6.603830 -7.575701 0.267860
RightArm 5.574272 -22.230023 72.889368
RightForeArm -22.190900 0.000000 26.939786
RightHand -0.433066 -0.000000 -1.293455
RightHandThumb1 -24.326973 -0.000000 -32.862282
LeftUpLeg 12.347752 10.256080 0.472054
LeftLeg -8.156163 -0.000000 0.000000
LeftFoot -15.148245 29.874817 -7.744936
LeftToeBase 20.123414 -0.000000 -0.000000
RightUpLeg 2.292638 6.160793 10.473122
RightLeg 12.765155 -0.000000 -0.000000
RightFoot -11.653938 -24.178400 5.519879
RightToeBase -3.612673 -0.000000 0.000000
367
root -4.243657 35.418535 -11.839143 -4.446601 -6.926196 -6.553625
Spine 9.774256 -1.680188 6.684604
Head 9.307171 7.140204 -5.261217
LeftShoulder -23.547491 15.414990 -6.276828
LeftArm 27.197712 -40.819880 -81.821700
LeftForeArm -3.721437 -0.000000 120.998760
LeftHand 2.423299 0.000000 7.470703
LeftHandThumb1 -26.253704 0.000000 33.147579
RightShoulder -6.535768 -7.536326 0.239869
RightArm 5.565605 -22.289946 72.885095
RightForeArm -22.288806 -0.000000 27.039945
RightHand -0.364888 -0.000000 -1.077865
RightHandThumb1 -24.326973 -0.000000 -32.862282
LeftUpLeg 12.282267 10.398826 0.561156
LeftLeg -8.005995 -0.000000 0.000000
LeftFoot -15.242549 29.765487 -7.780263
LeftToeBase 20.167481 -0.000000 -0.000000
RightUpLeg 2.246357 6.486452 10.505800
RightLeg 12.857180 -0.000000 -0.000000
RightFoot -11.602631 -24.305878 5.524910
RightToeBase -4.407963 -0.000000 0.000000
368
root -4.248941 35.425927 -11.836648 -4.439797 -6.954405 -6.588099
Spine 9.849851 -1.593619 6.758550
Head 9.037481 7.122805 -5.354634
LeftShoulder -23.470768 15.463374 -6.235246
LeftArm 27.420542 -40.913254 -82.200184
LeftForeArm -3.378906 -0.000000 120.845715
LeftHand 2.423409 0.000000 7.727496
LeftHandThumb1 -26.253704 0.000000 33.147579
RightShoulder -6.490867 -7.503295 0.166338
RightArm 5.621898 -22.481601 72.886541
RightForeArm -22.060104 -0.000000 27.099994
RightHand -0.350927 -0.000000 -0.599797
RightHandThumb1 -24.326973 -0.000000 -32.862282
LeftUpLeg 12.215162 10.499342 0.616897
LeftLeg -7.859287 -0.000000 0.000000
LeftFoot -15.322642 29.702357 -7.833091
LeftToeBase 20.209884 -0.000000 -0.000000
RightUpLeg 2.191644 6.812019 10.501280
RightLeg 12.932976 -0.000000 -0.000000
RightFoot -11.481555 -24.417985 5.553140
RightToeBase -5.464794 -0.000000 0.000000
369
root -4.259733 35.432265 -11.834638 -4.438209 -6.949826 -6.620915
Spine 9.935368 -1.541594 6.795156
Head 8.741245 7.131568 -5.378165
LeftShoulder -23.402057 15.440825 -6.139826
LeftArm 27.522773 -40.965497 -82.406245
LeftForeArm -3.019433 -0.000000 120.648718
LeftHand 2.293790 0.000000 8.215643
LeftHandThumb1 -26.253704 0.000000 33.147579
RightShoulder -6.441235 -7.463854 0.127243
RightArm 5.672271 -22.614749 72.879923
RightForeArm -22.232221 -0.000000 27.189553
RightHand -0.268592 0.000000 -0.674755
RightHandThumb1 -24.326973 -0.000000 -32.862282
LeftUpLeg 12.163976 10.582513 0.676983
LeftLeg -7.743790 -0.000000 0.000000
LeftFoot -15.378310 29.637636 -7.862979
LeftToeBase 20.207870 -0.000000 -0.000000
RightUpLeg 2.166083 7.211087 10.506919
RightLeg 12.946956 -0.000000 -0.000000
RightFoot -11.433874 -24.661831 5.512337
RightToeBase -5.888718 -0.000000 0.000000
370
root -4.272636 35.437553 -11.833422 -4.449229 -6.871343 -6.613251
Spine 10.034105 -1.547928 6.746941
Head 8.419047 7.101055 -5.350992
LeftShoulder -23.328287 15.409843 -6.028781
LeftArm 27.591144 -40.998180 -82.555753
LeftForeArm -2.851787 -0.000000 120.532691
LeftHand 2.549784 -0.000000 8.260076
LeftHandThumb1 -26.253704 0.000000 33.147579
RightShoulder -6.416974 -7.360990 0.108122
RightArm 5.693759 -22.916868 72.881314
RightForeArm -22.069556 -0.000000 27.258933
RightHand -0.249617 0.000000 -0.746104
RightHandThumb1 -24.326973 -0.000000 -32.862282
LeftUpLeg 12.079283 10.574249 0.694140
LeftLeg -7.563028 -0.000000 0.000000
LeftFoot -15.464022 29.566541 -7.921417
LeftToeBase 20.205719 -0.000000 -0.000000
RightUpLeg 2.153968 7.497499 10.470740
RightLeg 12.920499 -0.000000 -0.000000
RightFoot -11.361374 -24.932075 5.455175
RightToeBase -6.308322 -0.000000 0.000000
371
root -4.284722 35.442227 -11.830588 -4.492595 -6.755370 -6.565264
Spine 10.160476 -1.583586 6.658190
Head 8.095309 7.093086 -5.335248
LeftShoulder -23.219849 15.361262 -5.894873
LeftArm 27.651818 -41.085010 -82.702796
LeftForeArm -2.684105 0.000000 120.357500
LeftHand 2.658392 0.000000 8.410727
LeftHandThumb1 -26.253704 0.000000 33.147579
RightShoulder -6.400009 -7.369511 0.156756
RightArm 5.838440 -23.012182 72.777572
RightForeArm -22.369651 0.000000 27.401298
RightHand -0.167023 -0.000000 -0.494649
RightHandThumb1 -24.326973 -0.000000 -32.862282
LeftUpLeg 11.905706 10.859903 0.728668
LeftLeg -7.133371 -0.000000 0.000000
LeftFoot -15.652015 29.156831 -7.942870
LeftToeBase 20.224693 -0.000000 -0.000000
RightUpLeg 2.192143 7.703827 10.399278
RightLeg 12.823477 -0.000000 -0.000000
RightFoot -11.236492 -25.265236 5.286344
RightToeBase -6.689841 -0.000000 0.000000
372
root -4.298444 35.446956 -11.828666 -4.513242 -6.669104 -6.554133
Spine 10.272189 -1.613946 6.642351
Head 7.758885 7.098845 -5.392611
LeftShoulder -23.158815 15.278365 -5.824433
LeftArm 27.677977 -41.128472 -82.723382
LeftForeArm -2.495560 -0.000000 120.154410
LeftHand 2.702895 -0.000000 8.639344
LeftHandThumb1 -26.253704 0.000000 33.147579
RightShoulder -6.352799 -7.202007 0.126774
RightArm 5.755619 -23.136054 72.801496
RightForeArm -22.533748 -0.000000 27.574467
RightHand -0.145493 0.000000 -0.586778
RightHandThumb1 -24.326973 -0.000000 -32.862282
LeftUpLeg 11.786516 10.937001 0.761249
LeftLeg -6.859296 -0.000000 0.000000
LeftFoot -15.771985 28.995506 -7.974748
LeftToeBase 20.247153 -0.000000 -0.000000
RightUpLeg 2.232433 7.990236 10.341994
RightLeg 12.667966 -0.000000 -0.000000
RightFoot -11.052555 -25.466385 5.190456
RightToeBase -6.944523 -0.000000 0.000000
373
root -4.308593 35.449662 -11.824738 -4.521512 -6.654631 -6.517454
Spine 10.359655 -1.577064 6.620032
Head 7.440663 7.116053 -5.474582
LeftShoulder -23.136353 15.231472 -5.809973
LeftArm 27.739842 -41.136888 -82.687808
LeftForeArm -2.374846 -0.000000 119.944097
LeftHand 2.800741 -0.000000 8.910211
LeftHandThumb1 -26.253704 0.000000 33.147579
RightShoulder -6.335094 -7.317157 0.101320
RightArm 6.013650 -23.418780 72.687955
RightForeArm -22.270771 -0.000000 27.653093
RightHand -0.080991 -0.000000 -0.883384
RightHandThumb1 -24.326973 -0.000000 -32.862282
LeftUpLeg 11.724886 10.991991 0.745208
LeftLeg -6.713315 -0.000000 0.000000
LeftFoot -15.859723 28.929051 -8.095398
LeftToeBase 20.197936 -0.000000 -0.000000
RightUpLeg 2.269121 8.160764 10.259819
RightLeg 12.470132 -0.000000 -0.000000
RightFoot -10.867610 -25.575375 5.122369
RightToeBase -7.006038 -0.000000 0.000000
